<svg width="150" height="75" viewBox="0 0 150 75" fill="none" xmlns="http://www.w3.org/2000/svg">
<path d="M126.875 18L110 46.9592L111.598 48.0833L126.875 43.3333L142.153 48.0833L143.75 46.9592L126.875 18Z" fill="#003057"/>
<path d="M11.584 23C11.4667 23 11.3707 22.9627 11.296 22.888C11.2213 22.8133 11.184 22.7173 11.184 22.6V12.2C11.184 12.0827 11.2213 11.9867 11.296 11.912C11.3707 11.8373 11.4667 11.8 11.584 11.8H16.336C17.2213 11.8 17.9467 11.928 18.512 12.184C19.0773 12.44 19.4933 12.8027 19.76 13.272C20.0373 13.7413 20.176 14.2907 20.176 14.92C20.176 15.3147 20.1013 15.6613 19.952 15.96C19.8133 16.2587 19.6373 16.504 19.424 16.696C19.2213 16.888 19.024 17.032 18.832 17.128C19.248 17.32 19.6107 17.64 19.92 18.088C20.24 18.5253 20.4 19.048 20.4 19.656C20.4 20.328 20.2507 20.9147 19.952 21.416C19.6533 21.9173 19.2107 22.3067 18.624 22.584C18.0373 22.8613 17.3227 23 16.48 23H11.584ZM13.728 21.128H16.176C16.6987 21.128 17.0933 20.984 17.36 20.696C17.6267 20.3973 17.76 20.0453 17.76 19.64C17.76 19.224 17.6213 18.8773 17.344 18.6C17.0773 18.312 16.688 18.168 16.176 18.168H13.728V21.128ZM13.728 16.328H16.032C16.5333 16.328 16.9067 16.2053 17.152 15.96C17.408 15.704 17.536 15.3787 17.536 14.984C17.536 14.5893 17.408 14.2747 17.152 14.04C16.9067 13.7947 16.5333 13.672 16.032 13.672H13.728V16.328ZM25.189 23.16C24.5703 23.16 24.021 23.0213 23.541 22.744C23.0717 22.456 22.7037 22.0453 22.437 21.512C22.181 20.968 22.053 20.312 22.053 19.544V15.08C22.053 14.9627 22.0903 14.8667 22.165 14.792C22.2397 14.7173 22.3303 14.68 22.437 14.68H24.133C24.2503 14.68 24.3463 14.7173 24.421 14.792C24.4957 14.8667 24.533 14.9627 24.533 15.08V19.448C24.533 20.6427 25.0557 21.24 26.101 21.24C26.6023 21.24 26.997 21.0853 27.285 20.776C27.5837 20.456 27.733 20.0133 27.733 19.448V15.08C27.733 14.9627 27.7703 14.8667 27.845 14.792C27.9197 14.7173 28.0157 14.68 28.133 14.68H29.829C29.9357 14.68 30.0263 14.7173 30.101 14.792C30.1757 14.8667 30.213 14.9627 30.213 15.08V22.6C30.213 22.7173 30.1757 22.8133 30.101 22.888C30.0263 22.9627 29.9357 23 29.829 23H28.261C28.1437 23 28.0477 22.9627 27.973 22.888C27.8983 22.8133 27.861 22.7173 27.861 22.6V21.976C27.5837 22.36 27.2263 22.6533 26.789 22.856C26.3517 23.0587 25.8183 23.16 25.189 23.16ZM32.2268 23C32.1201 23 32.0294 22.9627 31.9548 22.888C31.8801 22.8133 31.8428 22.7173 31.8428 22.6V21.528C31.8428 21.4213 31.8641 21.3253 31.9068 21.24C31.9601 21.1547 32.0188 21.0747 32.0828 21L36.0028 16.536H32.3708C32.2534 16.536 32.1574 16.4987 32.0828 16.424C32.0081 16.3493 31.9708 16.2587 31.9708 16.152V15.08C31.9708 14.9627 32.0081 14.8667 32.0828 14.792C32.1574 14.7173 32.2534 14.68 32.3708 14.68H38.6108C38.7281 14.68 38.8241 14.7173 38.8988 14.792C38.9734 14.8667 39.0108 14.9627 39.0108 15.08V16.232C39.0108 16.328 38.9894 16.4133 38.9468 16.488C38.9041 16.5627 38.8508 16.6373 38.7868 16.712L34.9468 21.144H38.9468C39.0534 21.144 39.1441 21.1813 39.2188 21.256C39.2934 21.3307 39.3308 21.4213 39.3308 21.528V22.6C39.3308 22.7173 39.2934 22.8133 39.2188 22.888C39.1441 22.9627 39.0534 23 38.9468 23H32.2268ZM40.883 23C40.7763 23 40.6857 22.9627 40.611 22.888C40.5363 22.8133 40.499 22.7173 40.499 22.6V21.528C40.499 21.4213 40.5203 21.3253 40.563 21.24C40.6163 21.1547 40.675 21.0747 40.739 21L44.659 16.536H41.027C40.9097 16.536 40.8137 16.4987 40.739 16.424C40.6643 16.3493 40.627 16.2587 40.627 16.152V15.08C40.627 14.9627 40.6643 14.8667 40.739 14.792C40.8137 14.7173 40.9097 14.68 41.027 14.68H47.267C47.3843 14.68 47.4803 14.7173 47.555 14.792C47.6297 14.8667 47.667 14.9627 47.667 15.08V16.232C47.667 16.328 47.6457 16.4133 47.603 16.488C47.5603 16.5627 47.507 16.6373 47.443 16.712L43.603 21.144H47.603C47.7097 21.144 47.8003 21.1813 47.875 21.256C47.9497 21.3307 47.987 21.4213 47.987 21.528V22.6C47.987 22.7173 47.9497 22.8133 47.875 22.888C47.8003 22.9627 47.7097 23 47.603 23H40.883Z" fill="#003057"/>
<path d="M10.95 62C10.5833 62 10.2833 61.8667 10.05 61.6C9.85 61.3333 9.78333 61.0167 9.85 60.65L16.75 28.35C16.8167 27.9833 17 27.6667 17.3 27.4C17.6333 27.1333 17.9833 27 18.35 27H26.25C26.9167 27 27.3667 27.15 27.6 27.45C27.8333 27.75 27.9833 27.9833 28.05 28.15L33.6 42L36.5 28.35C36.5667 27.9833 36.75 27.6667 37.05 27.4C37.3833 27.1333 37.7333 27 38.1 27H47.15C47.5167 27 47.8 27.1333 48 27.4C48.2333 27.6667 48.3167 27.9833 48.25 28.35L41.35 60.65C41.2833 61.0167 41.0833 61.3333 40.75 61.6C40.45 61.8667 40.1167 62 39.75 62H31.85C31.1833 62 30.7167 61.85 30.45 61.55C30.2167 61.2167 30.0667 60.9833 30 60.85L24.3 48.1L21.6 60.65C21.5333 61.0167 21.3333 61.3333 21 61.6C20.7 61.8667 20.3667 62 20 62H10.95ZM56.3629 62.5C54.9296 62.5 53.5962 62.3 52.3629 61.9C51.1629 61.4667 50.1462 60.8 49.3129 59.9C48.5129 58.9667 47.9629 57.7667 47.6629 56.3C47.3629 54.8333 47.3796 53.05 47.7129 50.95C47.8796 50.1833 48.0129 49.5167 48.1129 48.95C48.2462 48.3833 48.3962 47.7333 48.5629 47C49.0629 45.0333 49.7296 43.3333 50.5629 41.9C51.3962 40.4333 52.3629 39.2333 53.4629 38.3C54.5962 37.3667 55.8462 36.6667 57.2129 36.2C58.5796 35.7333 60.0462 35.5 61.6129 35.5C63.5129 35.5 64.9796 35.7333 66.0129 36.2C67.0462 36.6667 67.8796 37.2667 68.5129 38L68.6629 37.35C68.7296 36.9833 68.9129 36.6667 69.2129 36.4C69.5462 36.1333 69.8962 36 70.2629 36H78.7129C79.0796 36 79.3629 36.1333 79.5629 36.4C79.7962 36.6667 79.8796 36.9833 79.8129 37.35L74.8629 60.65C74.7962 61.0167 74.5962 61.3333 74.2629 61.6C73.9629 61.8667 73.6296 62 73.2629 62H64.7629C64.3962 62 64.0962 61.8667 63.8629 61.6C63.6629 61.3333 63.5962 61.0167 63.6629 60.65L63.9129 59.5C62.9129 60.4 61.8296 61.1333 60.6629 61.7C59.5296 62.2333 58.0962 62.5 56.3629 62.5ZM61.9129 53.55C62.5462 53.55 63.0629 53.4333 63.4629 53.2C63.8629 52.9667 64.1796 52.6333 64.4129 52.2C64.6796 51.7667 64.8962 51.25 65.0629 50.65C65.2629 49.8833 65.4129 49.2667 65.5129 48.8C65.6129 48.3 65.7129 47.6833 65.8129 46.95C65.9129 46.4167 65.9129 45.9667 65.8129 45.6C65.7129 45.2333 65.4962 44.95 65.1629 44.75C64.8629 44.55 64.4296 44.45 63.8629 44.45C63.2629 44.45 62.7629 44.5667 62.3629 44.8C61.9629 45.0333 61.6462 45.3667 61.4129 45.8C61.1796 46.2333 60.9629 46.75 60.7629 47.35C60.6296 47.85 60.4962 48.4 60.3629 49C60.2296 49.6 60.1296 50.15 60.0629 50.65C59.9962 51.25 59.9796 51.7667 60.0129 52.2C60.0796 52.6333 60.2629 52.9667 60.5629 53.2C60.8629 53.4333 61.3129 53.55 61.9129 53.55ZM88.6707 62C88.1707 62 87.8207 61.8667 87.6207 61.6C87.454 61.3333 87.3374 61.05 87.2707 60.75L82.5707 37.55C82.504 37.15 82.5874 36.8 82.8207 36.5C83.054 36.1667 83.4707 36 84.0707 36H92.0207C92.5207 36 92.8707 36.1333 93.0707 36.4C93.2707 36.6667 93.3874 36.9333 93.4207 37.2L94.9207 48.85L101.421 37.2C101.587 36.9333 101.821 36.6667 102.121 36.4C102.421 36.1333 102.821 36 103.321 36H112.271C112.771 36 113.087 36.1667 113.221 36.5C113.354 36.8333 113.304 37.1833 113.071 37.55L98.5707 60.75C98.3374 61.05 98.0874 61.3333 97.8207 61.6C97.554 61.8667 97.1707 62 96.6707 62H88.6707Z" fill="white"/>
</svg>
